<svg xmlns="http://www.w3.org/2000/svg" width="381.885" height="457.395" viewBox="0 0 381.885 457.395">
  <g id="Group_12" data-name="Group 12" transform="translate(-246.355 -256.5)">
    <path id="Path_41" data-name="Path 41" d="M26.565,92.2c14.672,0,73.384-1.119,35.073-25.653S27.418,9.176,22.211,1.25,0,24.749,0,48.748,11.894,92.2,26.565,92.2Z" transform="translate(554.385 428.531) rotate(173)" fill="#1a1e21"/>
    <path id="Path_40" data-name="Path 40" d="M26.565,0C41.237,0,99.949,1.119,61.638,25.653s-34.22,57.372-39.427,65.3S0,67.453,0,43.454,11.894,0,26.565,0Z" transform="translate(345.969 344.195) rotate(7)" fill="#1a1e21"/>
    <path id="Path_38" data-name="Path 38" d="M26.565,0C41.237,0,99.949,1.119,61.638,25.653s-34.22,57.372-39.427,65.3S0,67.453,0,43.454,11.894,0,26.565,0Z" transform="matrix(0.998, -0.07, 0.07, 0.998, 344.487, 409.498)" fill="#1a1e21"/>
    <path id="Path_39" data-name="Path 39" d="M29.587,0c16.34,0,81.731,1.2,39.062,27.5S30.537,89,24.737,97.5,0,72.307,0,46.581,13.247,0,29.587,0Z" transform="translate(369.242 446.684) rotate(-5)" fill="#1a1e21"/>
    <path id="Path_37" data-name="Path 37" d="M26.565,92.2c14.672,0,73.384-1.119,35.073-25.653S27.418,9.176,22.211,1.25,0,24.749,0,48.748,11.894,92.2,26.565,92.2Z" transform="translate(538.741 501.474) rotate(-176)" fill="#1a1e21"/>
    <path id="Path_36" data-name="Path 36" d="M26.565,92.2c14.672,0,73.384-1.119,35.073-25.653S27.418,9.176,22.211,1.25,0,24.749,0,48.748,11.894,92.2,26.565,92.2Z" transform="matrix(-0.995, -0.105, 0.105, -0.995, 512.109, 543.765)" fill="#1a1e21"/>
    <path id="Path_35" data-name="Path 35" d="M65.894-.533S84.254-4.294,98.558,4.459c6.191-7.045,21.929-8.631,22.631-8.54,22.631-.427,68.232,16.943,87.873,45.038C232.417,74.365,167.647,84,108,84S-15.144,121.635-3.417,64.41,65.894-.533,65.894-.533Z" transform="translate(341.058 260.588)" fill="#1a1e21"/>
    <g id="Group_3" data-name="Group 3" transform="translate(-475 -76.973)">
      <path id="Path_7" data-name="Path 7" d="M116.669,25.567c1.807,18.713,1.991,35.192,4.91,46.329,6.618,27.968,15.372,36.721,23.7,44.621,30.53,57,1.281,4.7,1.281,4.7l1.495-1.281v1.281h0v-1.281L161.9,154H-8.224L5.865,126.125l2.348-6.191-2.348,4.7h0s-5.807,3.335,4.27-9.394S41.305,79.369,38.316,28.343,113.04-12.008,116.669,25.567Z" transform="translate(843 575)" fill="#f7bf9c"/>
    </g>
    <path id="Path_10" data-name="Path 10" d="M27.5,0C42.688,0,47.922,15.222,47.922,34s9.7,37.305-5.488,37.305S0,52.778,0,34,12.312,0,27.5,0Z" transform="translate(321 395.027)" fill="#f7bf9c"/>
    <path id="Path_11" data-name="Path 11" d="M23.474,0C8.286,0,3.052,15.222,3.052,34s-9.7,37.305,5.488,37.305S50.974,52.778,50.974,34,38.662,0,23.474,0Z" transform="translate(518 395.027)" fill="#f7bf9c"/>
    <path id="Path_22" data-name="Path 22" d="M15.03.637c3.688,0,10.447-.832,14.237,4.259,5.956,7.995,7.386,18.865,4.566,25.848-3.933,5.39-7.827,6.57-12.387,6.795-1.869-.15-3.338-8.529-9.643-6.795-1.814.5-5.666,16.423-7.512,12.633C-10.747,45.412,0,45.016,0,29S10.333,1.278,15.03.637Z" transform="translate(526 407.027)" fill="#dcac8d"/>
    <path id="Path_19" data-name="Path 19" d="M1009,494s.852-7.351,5.513-10.04c2.314-1.339,10.51-5.091,11.66,8.54" transform="translate(-481 -68.973)" fill="none" stroke="#000" stroke-width="2"/>
    <path id="Path_23" data-name="Path 23" d="M16.085,6.2C12.4,6.2,5.912,3.52,2.122,8.61-3.834,16.6-3.853,22.017-1.033,29,2.9,34.39,5.413,37.315,9.973,37.539c1.869-.15,3.338-8.529,9.643-6.795,1.814.5,5.666,16.423,7.512,12.633C42.167,45.412,31.42,45.016,31.42,29S20.782,6.844,16.085,6.2Z" transform="translate(331.777 407.491)" fill="#dcac8d"/>
    <path id="Path_20" data-name="Path 20" d="M1026.173,494s-.852-7.351-5.513-10.04c-2.314-1.339-10.51-5.091-11.66,8.54" transform="translate(-666.397 -65.433)" fill="none" stroke="#000" stroke-width="2"/>
    <path id="Path_21" data-name="Path 21" d="M1030.385,494s-1.513-16.109-21.385-7.241" transform="translate(-675.205 -71.02)" fill="none" stroke="#000" stroke-width="2"/>
    <path id="Path_18" data-name="Path 18" d="M1009,494s1.513-16.109,21.385-7.241" transform="translate(-476 -75.973)" fill="none" stroke="#000" stroke-width="2"/>
    <path id="Path_17" data-name="Path 17" d="M881.087,603.916c.044-.636,21.887,11.19,41.057,10.135,20.027-1.1,38.361-14.924,37.937-13.483-.389,2.79.016,2.214,0,4.918,0,.321-19.985,13.37-39.251,14.806-19.643,1.464-39,2.181-39.213,1.34A168.546,168.546,0,0,0,881.087,603.916Z" transform="translate(-475 -76.973)" fill="#1a1e21"/>
    <path id="Polygon_1" data-name="Polygon 1" d="M4.006,45.759a3,3,0,0,1,5.987,0l3.8,58.045A3,3,0,0,1,10.8,107H3.2a3,3,0,0,1-2.994-3.2Z" transform="translate(366.917 484.662) rotate(177)" fill="#1a1e21"/>
    <path id="Polygon_2" data-name="Polygon 2" d="M4.006,45.759a3,3,0,0,1,5.987,0l3.8,58.045A3,3,0,0,1,10.8,107H3.2a3,3,0,0,1-2.994-3.2Z" transform="translate(534.092 486.153) rotate(-177)" fill="#1a1e21"/>
    <path id="Path_16" data-name="Path 16" d="M90.5,0C140.482,0,181,54.174,181,121S140.482,242,90.5,242,0,187.826,0,121,40.518,0,90.5,0Z" transform="translate(353 296.027)" fill="#f7bf9c"/>
    <circle id="Ellipse_8" data-name="Ellipse 8" cx="21.5" cy="21.5" r="21.5" transform="translate(456 378)" fill="#fff"/>
    <circle id="Ellipse_3" data-name="Ellipse 3" cx="5.352" cy="5.352" r="5.352" transform="translate(459.164 394.486)"/>
    <path id="Path_14" data-name="Path 14" d="M5,0A89.028,89.028,0,0,1,26.286-3.169,78.006,78.006,0,0,1,48,0a5,5,0,0,1,0,10A95.144,95.144,0,0,0,26.286,7.013,89.23,89.23,0,0,0,5,10,5,5,0,0,1,5,0Z" transform="matrix(0.921, 0.391, -0.391, 0.921, 466.146, 348.653)" fill="#1a1e21"/>
    <g id="Group_1" data-name="Group 1" transform="translate(-475 -76.973)">
      <g id="Path_4" data-name="Path 4" transform="translate(835.65 449.122)" fill="none">
        <path d="M39.414,1.649C64.069.644,79.425,16.487,75.7,36.9S60.244,70.974,38.73,72.089,3.35,56.779,3.35,36.9,14.759,2.654,39.414,1.649Z" stroke="none"/>
        <path d="M 41.61874008178711 3.603759765625 C 40.92019271850586 3.603759765625 40.20589447021484 3.618438720703125 39.49567031860352 3.647377014160156 C 33.71100616455078 3.883125305175781 28.53620529174805 4.891372680664062 24.11502838134766 6.644111633300781 C 19.94698333740234 8.296501159667969 16.40309143066406 10.62935638427734 13.58179473876953 13.577880859375 C 10.8648681640625 16.41730117797852 8.787086486816406 19.85829162597656 7.406135559082031 23.80525970458984 C 6.0421142578125 27.7038459777832 5.350494384765625 32.10904693603516 5.350494384765625 36.89847946166992 C 5.350494384765625 45.9715461730957 8.375740051269531 54.31621551513672 13.86894989013672 60.39529037475586 C 16.64012908935547 63.4620246887207 19.94601821899414 65.85649108886719 23.69478225708008 67.51217651367188 C 27.6469612121582 69.25771331787109 32.01399230957031 70.14276885986328 36.6745719909668 70.14276885986328 C 37.31699371337891 70.14276885986328 37.97365951538086 70.1256103515625 38.62632751464844 70.09176635742188 C 48.49309539794922 69.58015441894531 56.51610565185547 66.29170227050781 62.47247314453125 60.3177490234375 C 68.09796905517578 54.67562484741211 71.88737487792969 46.67555999755859 73.73539733886719 36.53974533081055 C 74.50911712646484 32.29611206054688 74.42327880859375 28.21260070800781 73.48027038574219 24.40264511108398 C 72.56779479980469 20.71607971191406 70.87635803222656 17.37375640869141 68.45294189453125 14.46853637695312 C 65.631103515625 11.08568954467773 61.93919372558594 8.424461364746094 57.47975921630859 6.558761596679688 C 52.79301452636719 4.597969055175781 47.45660400390625 3.603759765625 41.61874008178711 3.603759765625 M 41.61873626708984 1.603759765625 C 64.98042297363281 1.603759765625 79.31257629394531 17.10085678100586 75.70295715332031 36.89847946166992 C 71.98135375976562 57.3102912902832 60.24440765380859 70.9735107421875 38.72989273071289 72.08908843994141 C 38.03786849975586 72.12497711181641 37.35055923461914 72.14276885986328 36.6745719909668 72.14276885986328 C 16.3345947265625 72.14276885986328 3.350494384765625 56.13997650146484 3.350494384765625 36.89847946166992 C 3.350494384765625 17.01750183105469 14.75926208496094 2.653816223144531 39.41422653198242 1.649032592773438 C 40.15610504150391 1.618804931640625 40.89396667480469 1.603759765625 41.61873626708984 1.603759765625 Z" stroke="none" fill="#000"/>
      </g>
      <path id="Path_6" data-name="Path 6" d="M303.483,518.457s11.177-.839,15.766.658" transform="translate(606.512 -44.615)" fill="none" stroke="#000" stroke-width="3"/>
      <g id="Path_42" data-name="Path 42" transform="translate(921.489 449.114)" fill="none">
        <path d="M40.193,1.649C15.538.644.183,16.487,3.9,36.9S19.363,70.974,40.878,72.089,76.257,56.779,76.257,36.9,64.848,2.654,40.193,1.649Z" stroke="none"/>
        <path d="M 37.98426055908203 3.603759765625 C 32.14817047119141 3.603759765625 26.81307220458984 4.597969055175781 22.12718200683594 6.558761596679688 C 17.66857147216797 8.424453735351562 13.97713851928711 11.08560562133789 11.15542602539062 14.46830749511719 C 8.731803894042969 17.37377166748047 7.040168762207031 20.71627426147461 6.127517700195312 24.40296173095703 C 5.184318542480469 28.21303939819336 5.098350524902344 32.29645156860352 5.872016906738281 36.53974914550781 C 7.720024108886719 46.67555999755859 11.50942993164062 54.67564010620117 17.13493728637695 60.3177604675293 C 23.09130477905273 66.29171752929688 31.11430358886719 69.58016967773438 40.98106002807617 70.09177398681641 C 41.63373947143555 70.12561798095703 42.2904052734375 70.14277648925781 42.93282699584961 70.14277648925781 C 47.59340667724609 70.14277648925781 51.96042633056641 69.25772094726562 55.91261672973633 67.51218414306641 C 59.66138458251953 65.85649108886719 62.96726226806641 63.46202850341797 65.73844146728516 60.39529418945312 C 71.23165130615234 54.31621551513672 74.25689697265625 45.97154998779297 74.25689697265625 36.89848327636719 C 74.25689697265625 32.10905075073242 73.56526947021484 27.70384979248047 72.20124816894531 23.80526351928711 C 70.82030487060547 19.85829544067383 68.74251556396484 16.41730499267578 66.02559661865234 13.57788467407227 C 63.20430374145508 10.62936019897461 59.66040420532227 8.2965087890625 55.49236297607422 6.644119262695312 C 51.07118225097656 4.891372680664062 45.89639282226562 3.883125305175781 40.11173629760742 3.647384643554688 C 39.40308380126953 3.618507385253906 38.68871688842773 3.603828430175781 37.98564910888672 3.603759765625 L 37.98426055908203 3.603759765625 M 37.98866271972656 1.603767395019531 C 38.71343231201172 1.603828430175781 39.4512939453125 1.618804931640625 40.19317245483398 1.649040222167969 C 64.84812927246094 2.653816223144531 76.25689697265625 17.01750564575195 76.25689697265625 36.89848327636719 C 76.25689697265625 56.13998031616211 63.27280044555664 72.14276885986328 42.93282699584961 72.14276885986328 C 42.25683975219727 72.14276885986328 41.56953048706055 72.12497711181641 40.87750625610352 72.08909606933594 C 19.36300659179688 70.97352600097656 7.626052856445312 57.31030654907227 3.904449462890625 36.89848327636719 C 0.294830322265625 17.10086059570312 14.62698364257812 1.601814270019531 37.98866271972656 1.603767395019531 Z" stroke="none" fill="#000"/>
      </g>
    </g>
    <path id="Path_8" data-name="Path 8" d="M73.531,10.243c12.809,7.789,22.331,15.565,55.508,15.41,33.281-.156,45.824-6.157,58.656-13.587s-.758-13.916-6.222-25.159-7.959-25.616-7.959-25.616,25.354-7.133,69.511,12.215c15.2,11.545,18.927,20.068,17.6,31.028-1.869,15.527-14.551,31.42-14.551,31.42l38.138,13.654s16.2,6.687,23.365,20.066,5.488,32.172,5.488,32.172l-381.715,5.024s4.878-31.708,17.073-46.342,30.488-18.293,30.488-18.293L5.353,35.7s-9.291-24.7-9.194-38.885S7.874-24.375,30.683-32.193,88.065-38.71,88.065-38.71s-1.682,10.726-9.157,24.182S60.722,2.454,73.531,10.243Z" transform="translate(315 607.027)" fill="#ff3d3d"/>
    <path id="Path_12" data-name="Path 12" d="M882,554.281s48.51,28.049,82.047,0" transform="translate(-475 -98.242)" fill="none" stroke="#000" stroke-width="2"/>
    <g id="Group_5" data-name="Group 5" transform="translate(-480.813 -73.973)">
      <path id="Path_29" data-name="Path 29" d="M-.456,4.842c7.614-11.889,16.932-5.6,18.7-5.953" transform="matrix(0.777, 0.629, -0.629, 0.777, 858.668, 655.869)" fill="none" stroke="#be0000" stroke-width="1"/>
      <path id="Path_30" data-name="Path 30" d="M15.7,13.261c1.948-.1,19.2,2.192,26.637-17.082" transform="matrix(-0.809, -0.588, 0.588, -0.809, 875.885, 690.866)" fill="none" stroke="#be0000" stroke-width="1"/>
    </g>
    <path id="Path_13" data-name="Path 13" d="M915.265,494s-7.054,17.99-9.214,24.635,9.336,16.878,19.947.834" transform="translate(-475 -76.973)" fill="none" stroke="#000" stroke-width="2"/>
    <path id="Path_15" data-name="Path 15" d="M5,10a89.028,89.028,0,0,0,21.286,3.169A78.006,78.006,0,0,0,48,10,5,5,0,0,0,48,0,95.144,95.144,0,0,1,26.286,2.987,89.23,89.23,0,0,1,5,0,5,5,0,0,0,5,10Z" transform="matrix(-0.921, 0.391, -0.391, -0.921, 425.909, 357.099)" fill="#1a1e21"/>
    <path id="Path_24" data-name="Path 24" d="M870.937,722.146s48.31,12.172,99.073-8.3" transform="translate(-287.881 -248.429) rotate(13)" fill="none" stroke="#be0000" stroke-width="1"/>
    <path id="Path_25" data-name="Path 25" d="M834.776,733.552s53.053,21.648,136.739,8.6" transform="translate(-473 -72.205)" fill="none" stroke="#be0000" stroke-width="1"/>
    <line id="Line_1" data-name="Line 1" y2="30.973" transform="translate(371.5 681.527)" fill="none" stroke="#fff" stroke-width="5"/>
    <line id="Line_2" data-name="Line 2" x2="0.5" y2="30.973" transform="translate(518 679.527)" fill="none" stroke="#fff" stroke-width="5"/>
    <g id="Group_6" data-name="Group 6" transform="translate(494.481 577.042)">
      <path id="Path_29-2" data-name="Path 29" d="M0,0C7.614,11.889,17.328,5.717,18.751,6.571" transform="translate(19.209 4.323) rotate(135)" fill="none" stroke="#be0000" stroke-width="1"/>
      <path id="Path_30-2" data-name="Path 30" d="M-.11.148c2.046.3,19.392-2.175,26.833,17.1" transform="matrix(0.809, -0.588, 0.588, 0.809, 3.664, 17.811)" fill="none" stroke="#be0000" stroke-width="1"/>
    </g>
    <path id="Path_33" data-name="Path 33" d="M26.565,0C41.237,0,99.949,1.119,61.638,25.653s-34.22,57.372-39.427,65.3S0,67.453,0,43.454,11.894,0,26.565,0Z" transform="matrix(0.956, 0.292, -0.292, 0.956, 344.851, 284.661)" fill="#1a1e21"/>
    <path id="Path_31" data-name="Path 31" d="M33.5,0C52,0,136.64,2.819,83.861,28.805s-49.285,74.37-55.852,84.22S0,83.823,0,54,15,0,33.5,0Z" transform="translate(345.054 278.154) rotate(5)" fill="#1a1e21"/>
    <path id="Path_34" data-name="Path 34" d="M26.565,92.2c14.672,0,73.384-1.119,35.073-25.653S28.856,9.166,23.649,1.24,0,24.749,0,48.748,11.894,92.2,26.565,92.2Z" transform="translate(573.274 373.128) rotate(167)" fill="#1a1e21"/>
    <path id="Path_32" data-name="Path 32" d="M61.569,0c-18.882,0-96.2-7.72-39.116,32.974s38.018,76.234,44.72,86.66S95.757,88.725,95.757,57.158,80.451,0,61.569,0Z" transform="matrix(0.966, -0.259, 0.259, 0.966, 426.472, 291.411)" fill="#1a1e21"/>
    <circle id="Ellipse_7" data-name="Ellipse 7" cx="21.5" cy="21.5" r="21.5" transform="translate(388 378)" fill="#fff"/>
    <circle id="Ellipse_6" data-name="Ellipse 6" cx="5.352" cy="5.352" r="5.352" transform="translate(415.204 393.603)"/>
  </g>
</svg>
